<?xml version="1.0" standalone="no"?>
<!DOCTYPE svg PUBLIC "-//W3C//DTD SVG 20010904//EN"
 "http://www.w3.org/TR/2001/REC-SVG-20010904/DTD/svg10.dtd">
<svg version="1.0"
  xmlns="http://www.w3.org/2000/svg" width="1280.000000pt" height="1280.000000pt" viewBox="0 0 1280.000000 1280.000000" preserveAspectRatio="xMidYMid meet">
  <metadata>
Created by potrace 1.16, written by Peter Selinger 2001-2019
  </metadata>
  <g transform="translate(0.000000,1280.000000) scale(0.100000,-0.100000)" fill='#0F370E' stroke="none">
    <path d="M2393 11630 c-181 -47 -331 -170 -409 -335 -68 -143 -64 -31 -64
-1712 l0 -1523 1508 0 c1663 0 1577 -3 1715 64 95 46 177 113 234 189 265 358
109 863 -311 1004 l-81 27 -412 6 -412 5 107 75 c464 326 996 543 1543 629
218 35 348 45 589 45 241 0 371 -10 589 -45 809 -128 1565 -534 2128 -1141
817 -882 1154 -2089 913 -3268 -194 -943 -763 -1789 -1565 -2325 -515 -344
-1041 -536 -1670 -611 -193 -23 -589 -23 -788 0 -631 72 -1194 282 -1707 633
-343 236 -717 610 -953 953 -291 425 -486 890 -586 1400 -34 172 -50 312 -61
545 -11 239 -21 309 -52 392 -30 82 -113 198 -182 255 -72 61 -197 122 -283
138 -98 19 -264 9 -351 -22 -199 -71 -353 -240 -409 -448 -40 -148 -9 -672 63
-1070 218 -1199 878 -2280 1859 -3045 750 -586 1669 -941 2650 -1026 180 -16
630 -16 810 0 1052 91 1988 475 2805 1149 148 123 499 474 622 622 602 729
978 1568 1112 2480 68 458 68 1002 0 1460 -134 912 -512 1754 -1112 2480 -123
149 -474 500 -622 622 -817 675 -1753 1058 -2805 1149 -77 7 -259 12 -405 12
-290 0 -453 -11 -720 -49 -718 -102 -1409 -363 -2015 -761 -141 -93 -329 -230
-412 -300 l-53 -45 0 434 c0 474 -2 490 -60 616 -58 124 -166 234 -293 299
-124 62 -312 80 -454 43z"/>
  </g>
</svg>
